<svg width="40" height="40" viewBox="0 0 40 40" fill="none" xmlns="http://www.w3.org/2000/svg">
<g clip-path="url(#clip0_684_16824)">
<rect width="40" height="40" rx="8" fill="#F1F1F4"/>
<path d="M31.9991 20.2668C31.9991 19.2801 31.9174 18.5601 31.7406 17.8135H20.2441V22.2667H26.9923C26.8563 23.3734 26.1216 25.0401 24.489 26.16L24.4661 26.3091L28.1011 29.0688L28.3529 29.0934C30.6658 27 31.9991 23.9201 31.9991 20.2668" fill="#4285F4"/>
<path d="M20.2434 32.0002C23.5494 32.0002 26.3248 30.9335 28.3521 29.0936L24.4882 26.1601C23.4542 26.8668 22.0664 27.3601 20.2434 27.3601C17.0053 27.3601 14.2571 25.2669 13.2774 22.3735L13.1338 22.3855L9.35412 25.2522L9.30469 25.3868C11.3182 29.3068 15.4543 32.0002 20.2434 32.0002Z" fill="#34A853"/>
<path d="M13.2788 22.3731C13.0203 21.6264 12.8707 20.8263 12.8707 19.9997C12.8707 19.173 13.0203 18.3731 13.2652 17.6264L13.2584 17.4674L9.43129 14.5547L9.30608 14.6131C8.47619 16.2397 8 18.0664 8 19.9997C8 21.933 8.47619 23.7596 9.30608 25.3863L13.2788 22.3731" fill="#FBBC05"/>
<path d="M20.2434 12.6399C22.5427 12.6399 24.0937 13.6133 24.9781 14.4266L28.4338 11.12C26.3114 9.18666 23.5495 8 20.2434 8C15.4543 8 11.3183 10.6933 9.30469 14.6132L13.2638 17.6266C14.2571 14.7333 17.0054 12.6399 20.2434 12.6399" fill="#EB4335"/>
</g>
<defs>
<clipPath id="clip0_684_16824">
<rect width="40" height="40" rx="8" fill="white"/>
</clipPath>
</defs>
</svg>
