<?xml version="1.0" standalone="no"?>
<!DOCTYPE svg PUBLIC "-//W3C//DTD SVG 20010904//EN"
        "http://www.w3.org/TR/2001/REC-SVG-20010904/DTD/svg10.dtd">
<svg version="1.0" xmlns="http://www.w3.org/2000/svg"
     width="360.000000pt" height="360.000000pt" viewBox="0 0 360.000000 360.000000"
     preserveAspectRatio="xMidYMid meet">

    <g transform="translate(0.000000,360.000000) scale(0.100000,-0.100000)"
       fill="currentColor" stroke="none">
        <path d="M959 3066 c-52 -18 -91 -51 -116 -99 l-23 -42 0 -1066 0 -1067 33
-48 c52 -78 79 -88 242 -94 l140 -5 3 -152 c1 -84 5 -153 8 -153 2 0 72 45
154 101 l150 100 123 -82 c67 -45 133 -91 146 -101 13 -10 28 -18 32 -18 5 0
9 167 9 370 0 254 -3 370 -11 370 -5 0 -29 -21 -52 -46 -61 -67 -107 -88 -176
-80 -76 8 -70 8 -128 0 -75 -10 -132 14 -185 77 -61 72 -67 68 -70 -58 l-3
-108 -105 0 -105 0 0 1000 0 1000 840 0 840 0 0 -1000 0 -1000 -283 -5 -284
-5 -29 -33 c-40 -45 -40 -98 0 -141 l29 -31 309 0 c300 0 310 1 353 22 26 14
57 41 75 66 l30 44 3 1069 c2 1044 2 1071 -17 1113 -20 43 -69 85 -124 105
-45 17 -1761 14 -1808 -3z"/>
        <path d="M1295 2539 c-76 -43 -72 -161 6 -188 45 -15 1083 -15 1128 0 61 21
80 109 36 164 l-25 30 -562 2 c-399 2 -569 -1 -583 -8z"/>
        <path d="M1292 2113 c-60 -29 -72 -115 -23 -164 l29 -29 402 0 c435 0 444 1
468 55 7 14 12 36 12 49 0 33 -41 89 -70 97 -14 4 -196 7 -405 8 -333 0 -384
-1 -413 -16z"/>
        <path d="M1503 1725 c-17 -7 -34 -23 -38 -35 -6 -18 -12 -20 -48 -15 -79 12
-120 -22 -120 -98 0 -34 -4 -41 -32 -54 -60 -29 -74 -107 -28 -155 23 -25 26
-32 15 -48 -34 -55 1 -131 68 -148 24 -6 39 -17 49 -38 34 -73 89 -94 150 -58
25 15 30 15 59 0 64 -33 133 -13 147 41 9 36 23 53 46 53 69 0 109 74 77 145
-10 22 -8 28 10 45 27 25 36 60 28 103 -5 26 -16 39 -47 56 -31 18 -40 28 -36
42 3 11 1 35 -4 54 -12 44 -57 70 -107 61 -30 -4 -41 0 -74 29 -41 38 -65 42
-115 20z m131 -194 c20 -13 47 -42 61 -65 44 -75 28 -146 -45 -209 -38 -32
-50 -37 -94 -37 -144 1 -225 154 -140 265 56 73 144 92 218 46z"/>
    </g>
</svg>
