<?xml version="1.0" encoding="UTF-8"?>
<svg xmlns="http://www.w3.org/2000/svg" xmlns:xlink="http://www.w3.org/1999/xlink" width="424px" height="424px"
     viewBox="-76 -76 600 600" version="1.1">
    <g id="surface1">
        <path style=" stroke:none;fill-rule:nonzero;fill-opacity:1;"
              d="M 258.109375 424 C 254.78125 424 251.398438 423.269531 248.222656 421.730469 C 237.308594 416.445312 232.898438 403.605469 238.367188 393.058594 C 251.355469 368.003906 261.941406 341.640625 269.832031 314.6875 C 273.160156 303.332031 285.378906 296.734375 297.117188 299.949219 C 308.863281 303.164062 315.691406 314.96875 312.367188 326.324219 C 303.71875 355.855469 292.117188 384.75 277.882812 412.203125 C 274.007812 419.679688 266.207031 424 258.109375 424 Z M 160.152344 418.164062 C 156.128906 418.164062 152.058594 417.105469 148.402344 414.882812 C 138.070312 408.597656 134.964844 395.40625 141.464844 385.421875 C 179.050781 327.675781 198.914062 260.902344 198.914062 192.320312 C 198.914062 180.519531 208.808594 170.953125 221.015625 170.953125 C 233.222656 170.953125 243.117188 180.519531 243.117188 192.320312 C 243.117188 268.964844 220.902344 343.605469 178.878906 408.175781 C 174.679688 414.628906 167.496094 418.164062 160.152344 418.164062 Z M 84.121094 374.582031 C 80.25 374.582031 76.332031 373.597656 72.769531 371.535156 C 62.304688 365.460938 58.910156 352.335938 65.191406 342.21875 L 66.386719 340.296875 C 66.46875 340.167969 66.550781 340.039062 66.632812 339.910156 C 95.445312 295.664062 110.617188 244.640625 110.511719 192.359375 C 110.511719 163.785156 122.007812 136.960938 142.878906 116.785156 C 163.75 96.605469 191.5 85.496094 221.015625 85.496094 C 250.535156 85.496094 278.289062 96.605469 299.15625 116.785156 C 320.03125 136.957031 331.523438 163.785156 331.523438 192.316406 C 331.523438 214.578125 329.945312 237.109375 326.835938 259.28125 C 325.195312 270.976562 314.058594 279.164062 301.96875 277.582031 C 289.871094 275.996094 281.394531 265.234375 283.035156 253.542969 C 285.878906 233.261719 287.320312 212.664062 287.320312 192.316406 C 287.320312 175.199219 280.425781 159.105469 267.902344 147 C 255.378906 134.890625 238.730469 128.226562 221.015625 128.226562 C 203.304688 128.226562 186.65625 134.890625 174.132812 147 C 161.609375 159.105469 154.714844 175.199219 154.714844 192.320312 C 154.839844 252.574219 137.363281 311.421875 104.175781 362.472656 L 103.09375 364.210938 C 98.949219 370.882812 91.628906 374.582031 84.121094 374.582031 Z M 375.957031 366.058594 C 373.953125 366.058594 371.917969 365.796875 369.894531 365.238281 C 358.15625 362.007812 351.347656 350.1875 354.6875 338.839844 C 368.648438 291.4375 375.722656 242.136719 375.722656 192.316406 C 375.730469 166.09375 368.566406 140.234375 355.011719 117.527344 C 341.457031 94.820312 321.871094 75.886719 298.386719 62.773438 C 274.898438 49.660156 248.148438 42.730469 221.023438 42.730469 C 221.019531 42.730469 221.015625 42.730469 221.011719 42.730469 C 193.894531 42.730469 167.148438 49.65625 143.660156 62.765625 C 133.089844 68.664062 119.574219 65.164062 113.46875 54.945312 C 107.367188 44.726562 110.988281 31.660156 121.558594 25.761719 C 151.757812 8.90625 186.148438 0 221.015625 0 L 221.027344 0 C 255.902344 0 290.296875 8.914062 320.492188 25.773438 C 350.691406 42.632812 375.867188 66.972656 393.296875 96.167969 C 410.726562 125.363281 419.933594 158.613281 419.925781 192.324219 C 419.925781 246.097656 412.28125 299.328125 397.203125 350.539062 C 394.4375 359.933594 385.585938 366.058594 375.957031 366.058594 Z M 22.089844 306.921875 C 18.851562 306.921875 15.566406 306.234375 12.457031 304.773438 C 1.476562 299.625 -3.105469 286.839844 2.222656 276.226562 C 15.414062 249.941406 22.105469 221.710938 22.105469 192.320312 C 22.105469 158.550781 31.308594 125.304688 48.71875 96.175781 C 54.824219 85.957031 68.339844 82.457031 78.910156 88.363281 C 89.480469 94.265625 93.097656 107.332031 86.992188 117.550781 C 73.460938 140.191406 66.308594 166.046875 66.308594 192.320312 C 66.308594 228.226562 58.125 262.734375 41.988281 294.882812 C 38.167969 302.492188 30.289062 306.921875 22.089844 306.921875 Z M 22.089844 306.921875 "/>
    </g>
</svg>
